<svg width="512" height="512" viewBox="0 0 512 512" fill="none" xmlns="http://www.w3.org/2000/svg">
  <rect width="512" height="512" rx="128" fill="#4f46e5"/>
  <path d="M256 128C202.98 128 160 170.98 160 224C160 277.02 202.98 320 256 320C309.02 320 352 277.02 352 224C352 170.98 309.02 128 256 128ZM256 288C220.8 288 192 259.2 192 224C192 188.8 220.8 160 256 160C291.2 160 320 188.8 320 224C320 259.2 291.2 288 256 288Z" fill="white"/>
  <path d="M256 336C187.62 336 128 367.78 128 416V448H384V416C384 367.78 324.38 336 256 336ZM352 416H160C160 391.9 199.9 368 256 368C312.1 368 352 391.9 352 416Z" fill="white"/>
</svg>